<?xml version="1.0" encoding="utf-8"?>
<!-- Generator: Adobe Illustrator 24.1.1, SVG Export Plug-In . SVG Version: 6.00 Build 0)  -->
<svg version="1.1" id="Layer_1" xmlns="http://www.w3.org/2000/svg" xmlns:xlink="http://www.w3.org/1999/xlink" x="0px" y="0px"
	 viewBox="0 0 132.9 81.9" style="enable-background:new 0 0 132.9 81.9;" xml:space="preserve">
<style type="text/css">
	.st0{fill:#9BB8C4;}
	.st1{fill:#87A5AF;}
	.st2{fill:#D8E3E9;}
</style>
<path class="st0" d="M2.2,11.3H12c1.8,0.1,3.5,1,4.6,2.5c0,0,8.3,11.8,9.7,13.4C36.8,12.8,63.4,0,86.2,0c29.1,0,46.8,14.9,46.8,33.3
	c0,18.1-12.3,30.3-48.7,30.3s-69.4-6.9-72.8-14.8L0.2,14.1c-0.5-1,0-2.2,1-2.6C1.5,11.3,1.8,11.3,2.2,11.3z"/>
<path class="st1" d="M5,40.7c-3.1,7-4.4,15.5,0.4,15.5c5.6,0,21.3-7.4,21.3-15.5c0-3.3-4.9-5-10.9-5S6.3,37.6,5,40.7z"/>
<path class="st2" d="M70.7,20.1c0,4.6,3.7,8.4,8.4,8.4s8.4-3.7,8.4-8.4c0-4.6-3.7-8.4-8.4-8.4c0,0,0,0,0,0
	C74.5,11.8,70.7,15.5,70.7,20.1C70.7,20.1,70.7,20.1,70.7,20.1z"/>
<path class="st2" d="M46.4,25.6c0,4,3.2,7.2,7.2,7.2s7.2-3.2,7.2-7.2c0-4-3.2-7.2-7.2-7.2S46.4,21.7,46.4,25.6L46.4,25.6z"/>
<path class="st2" d="M132.8,30.5c-20.3,7.3-44,1.9-28.5-28.3C121.2,6.7,131.5,17.5,132.8,30.5z"/>
<path class="st1" d="M47.9,51.3c0,13.6,9,30.6,18.5,30.6c11.1,0,24.4-14.6,24.4-30.6c0-6.6-9.6-10-21.5-10S47.9,44.7,47.9,51.3z"/>
</svg>
