<svg xmlns="http://www.w3.org/2000/svg" viewBox="0 0 318.63 318.63"><defs><style>.cls-1{fill:#a8e0f9;}.cls-2{fill:#4f4f51;}.cls-3{fill:#231f20;}.cls-4{fill:#dcba8e;}.cls-5{fill:#fff;}.cls-6{fill:#e6e7e8;}.cls-7{fill:#dff3fb;}.cls-8{fill:#ffe28f;}.cls-9{fill:#ce4b54;}.cls-10{fill:#584631;}.cls-11{fill:#eecf76;}.cls-12{fill:#f37c84;}.cls-13{fill:#82c7de;}.cls-14{fill:#755d41;}.cls-15{opacity:0.1;}</style></defs><title>car</title><g id="background" fill-opacity="0"><circle class="cls-1" cx="159.32" cy="159.32" r="159.31"/></g><g id="car"><path class="cls-2" d="M277.62,328.82c0,1.44,12.92-2.21,28.87-2.21s28.87,3.65,28.87,2.21-12.93-7.41-28.87-7.41S277.62,327.38,277.62,328.82Z" transform="translate(-146.68 -237.18)"/><rect class="cls-3" x="180.93" y="63.97" width="0.8" height="1.35"/><rect class="cls-3" x="157.58" y="63.97" width="0.8" height="1.35"/><path class="cls-4" d="M329.8,302.3l4.74,8v7.76h.53v2.1h-.6v.63H326s-.28-4.33-4.61-4.33-4.42,4.33-4.42,4.33H293.14a4.46,4.46,0,0,0-4.59-4.27c-3.87,0-4.59,4.27-4.59,4.27h-5.41V320h-.93v-1.36H279v-3S278.76,310,292,310h1.6l4.24-6.16s1.13-1.49,7.8-1.49Z" transform="translate(-146.68 -237.18)"/><path class="cls-3" d="M316.68,321.06a4.73,4.73,0,1,0,4.73-4.8A4.76,4.76,0,0,0,316.68,321.06Z" transform="translate(-146.68 -237.18)"/><path class="cls-3" d="M283.93,321.06a4.73,4.73,0,1,0,4.73-4.8A4.77,4.77,0,0,0,283.93,321.06Z" transform="translate(-146.68 -237.18)"/><path class="cls-5" d="M286.34,321.06a2.33,2.33,0,1,0,2.32-2.36A2.34,2.34,0,0,0,286.34,321.06Z" transform="translate(-146.68 -237.18)"/><path class="cls-5" d="M319.08,321.06a2.33,2.33,0,1,0,2.33-2.36A2.35,2.35,0,0,0,319.08,321.06Z" transform="translate(-146.68 -237.18)"/><path class="cls-6" d="M330.51,303.59H319.83a1.08,1.08,0,0,0-1.06,1.08v4.2a1.08,1.08,0,0,0,1.06,1.08h14.51" transform="translate(-146.68 -237.18)"/><path class="cls-6" d="M293.6,310h11.31a1.08,1.08,0,0,0,1.07-1.08v-4.2a1.08,1.08,0,0,0-1.07-1.08h-6.84a.88.88,0,0,0-.32.32" transform="translate(-146.68 -237.18)"/><path class="cls-3" d="M313.38,312.45a.27.27,0,0,0,.27.27h3.07a.27.27,0,0,0,.27-.27v-.33a.28.28,0,0,0-.27-.28h-3.07a.28.28,0,0,0-.27.28Z" transform="translate(-146.68 -237.18)"/><path class="cls-3" d="M301.77,312.45a.27.27,0,0,0,.27.27h3.07a.27.27,0,0,0,.27-.27v-.33a.28.28,0,0,0-.27-.28H302a.28.28,0,0,0-.27.28Z" transform="translate(-146.68 -237.18)"/><path class="cls-6" d="M317.54,304.67a1.08,1.08,0,0,0-1.07-1.08h-8.34a1.08,1.08,0,0,0-1.06,1.08v4.2a1.08,1.08,0,0,0,1.06,1.08h8.34a1.08,1.08,0,0,0,1.07-1.08Z" transform="translate(-146.68 -237.18)"/><path class="cls-7" d="M334.34,310" transform="translate(-146.68 -237.18)"/><path class="cls-5" d="M318.77,304.67a1.08,1.08,0,0,1,1.06-1.08h10.68l3.83,6.36h-6.7" transform="translate(-146.68 -237.18)"/><path class="cls-5" d="M304.91,310a1.08,1.08,0,0,0,1.07-1.08v-4.2a1.08,1.08,0,0,0-1.07-1.08h-6.84a.88.88,0,0,0-.32.32" transform="translate(-146.68 -237.18)"/><path class="cls-5" d="M316.47,310a1.08,1.08,0,0,0,1.07-1.08v-4.2a1.08,1.08,0,0,0-1.07-1.08h-8.34a1.08,1.08,0,0,0-1.06,1.08" transform="translate(-146.68 -237.18)"/><path d="M335.07,318.05v2.07H327a6.07,6.07,0,0,0-.67-2.07Z" transform="translate(-146.68 -237.18)"/><path d="M277.62,318.05h6.11a6.31,6.31,0,0,0-.68,2.07h-5.43Z" transform="translate(-146.68 -237.18)"/><path d="M293.6,318.05h22.88a6.08,6.08,0,0,0-.68,2.07H294.27a6.47,6.47,0,0,0-.59-1.9Z" transform="translate(-146.68 -237.18)"/><path class="cls-8" d="M279,315.37h1a1.15,1.15,0,0,1,1,.78l.21.74a.57.57,0,0,1-.57.78H279Z" transform="translate(-146.68 -237.18)"/><path class="cls-9" d="M330.43,316.88l.21-.74a1.15,1.15,0,0,1,1-.78h2.84v2.29H331A.57.57,0,0,1,330.43,316.88Z" transform="translate(-146.68 -237.18)"/><path class="cls-3" d="M302.75,301.83h26.74a.41.41,0,0,0,0-.81H302.75a.41.41,0,0,0,0,.81Z" transform="translate(-146.68 -237.18)"/><path class="cls-3" d="M321.06,294.57a.28.28,0,0,0,.26-.28V293.2a.27.27,0,0,0-.26-.27h-2.48a.27.27,0,0,0-.27.27v.92a.27.27,0,0,0,.54,0v-.65h1.94v.82A.28.28,0,0,0,321.06,294.57Z" transform="translate(-146.68 -237.18)"/><rect class="cls-10" x="167.64" y="56.94" width="10.99" height="6.91"/><path class="cls-11" d="M322.52,301.43a.4.4,0,0,0,.4-.41v-6.84a.41.41,0,1,0-.81,0V301A.41.41,0,0,0,322.52,301.43Z" transform="translate(-146.68 -237.18)"/><path class="cls-11" d="M316.74,301.43a.4.4,0,0,0,.4-.41v-6.84a.4.4,0,0,0-.4-.41.41.41,0,0,0-.4.41V301A.4.4,0,0,0,316.74,301.43Z" transform="translate(-146.68 -237.18)"/><path class="cls-12" d="M315.54,297a.54.54,0,0,0,.65.4l2.38-.6a.55.55,0,0,0,.39-.66l-.11-.42a.53.53,0,0,0-.64-.4l-2.38.6a.54.54,0,0,0-.39.65Z" transform="translate(-146.68 -237.18)"/><path class="cls-13" d="M320.47,298.53a.56.56,0,0,0,.4.65l2.39.56a.54.54,0,0,0,.64-.41l.1-.42a.54.54,0,0,0-.4-.65l-2.39-.57a.54.54,0,0,0-.64.41Z" transform="translate(-146.68 -237.18)"/><path class="cls-3" d="M310,296.91a.27.27,0,0,0,.27-.27v-1.12a.27.27,0,0,0-.27-.27h-1.81a.27.27,0,0,0-.26.27v1a.27.27,0,1,0,.53,0v-.73h1.28v.85A.26.26,0,0,0,310,296.91Z" transform="translate(-146.68 -237.18)"/><rect class="cls-14" x="158.35" y="59.12" width="8.02" height="4.72"/><g class="cls-15"><polyline class="cls-5" points="178.63 63.84 178.63 56.94 167.64 56.94"/></g><g class="cls-15"><polyline class="cls-5" points="166.38 63.84 166.38 59.12 158.35 59.12"/></g><path class="cls-11" d="M311,301.43a.4.4,0,0,0,.4-.41v-4.74a.4.4,0,1,0-.8,0V301A.4.4,0,0,0,311,301.43Z" transform="translate(-146.68 -237.18)"/><path class="cls-11" d="M306.8,301.43a.41.41,0,0,0,.41-.41v-4.74a.41.41,0,1,0-.81,0V301A.4.4,0,0,0,306.8,301.43Z" transform="translate(-146.68 -237.18)"/><path class="cls-13" d="M309.36,298.27a.54.54,0,0,0,.39.66l1.74.44a.54.54,0,0,0,.65-.4l0-.15a.53.53,0,0,0-.39-.65l-1.74-.44a.54.54,0,0,0-.65.39Z" transform="translate(-146.68 -237.18)"/><path class="cls-12" d="M306,299.46a.51.51,0,0,0,.66.32l1.23-.41a.54.54,0,0,0,.35-.65.53.53,0,0,0-.67-.32l-1.22.41A.52.52,0,0,0,306,299.46Z" transform="translate(-146.68 -237.18)"/></g></svg>