<svg xmlns="http://www.w3.org/2000/svg" viewBox="0 0 318.63 318.63"><defs><style>.cls-1{fill:#a8e0f9;}.cls-2{fill:#4f4f51;}.cls-3{fill:#231f20;}.cls-4{fill:#fff;}</style></defs><title>carTires</title><g id="background" fill-opacity="0"><circle class="cls-1" cx="159.32" cy="159.32" r="159.31"/></g><g id="tires"><path class="cls-2" d="M277.62,328.82c0,1.44,12.92-2.21,28.87-2.21s28.87,3.65,28.87,2.21-12.93-7.41-28.87-7.41S277.62,327.38,277.62,328.82Z" transform="translate(-146.68 -237.18)"/><path class="cls-3" d="M316.68,321.06a4.73,4.73,0,1,0,4.73-4.8A4.76,4.76,0,0,0,316.68,321.06Z" transform="translate(-146.68 -237.18)"/><path class="cls-3" d="M283.93,321.06a4.73,4.73,0,1,0,4.73-4.8A4.77,4.77,0,0,0,283.93,321.06Z" transform="translate(-146.68 -237.18)"/><path class="cls-4" d="M286.34,321.06a2.33,2.33,0,1,0,2.32-2.36A2.34,2.34,0,0,0,286.34,321.06Z" transform="translate(-146.68 -237.18)"/><path class="cls-4" d="M319.08,321.06a2.33,2.33,0,1,0,2.33-2.36A2.35,2.35,0,0,0,319.08,321.06Z" transform="translate(-146.68 -237.18)"/></g></svg>