<?xml version="1.0" encoding="utf-8"?>
<!-- Generator: Adobe Illustrator 24.1.1, SVG Export Plug-In . SVG Version: 6.00 Build 0)  -->
<svg version="1.1" id="Layer_1" xmlns="http://www.w3.org/2000/svg" xmlns:xlink="http://www.w3.org/1999/xlink" x="0px" y="0px"
	 viewBox="0 0 318.6 318.6" style="enable-background:new 0 0 318.6 318.6;" xml:space="preserve">
<style type="text/css">
	.st0{fill:#A8E0F9;fill-opacity:0;}
	.st1{fill:#FFFFFF;}
	.st2{fill:#1A1D21;}
	.st3{fill:#24576A;}
	.st4{fill:#ABBCC5;}
	.st5{fill:#5D686E;}
	.st6{fill:#6D5B68;}
	.st7{fill:#A52C32;}
	.st8{fill:#616466;}
	.st9{fill:#294266;}
	.st10{fill:#CDA596;}
	.st11{fill:#715950;}
	.st12{fill:#3D2D26;}
	.st13{fill:#858473;}
	.st14{fill:#D6B347;}
	.st15{fill:#2D3F50;}
	.st16{fill:#E9E8E8;}
	.st17{fill:#E1D080;}
	.st18{fill:#FFFBD3;}
	.st19{fill:#5A5A5A;}
	.st20{fill:#686B6D;}
	.st21{fill:#B3B4B5;}
	.st22{fill:#EFD863;}
	.st23{fill:#626A6F;}
	.st24{fill:#B9BABB;}
	.st25{fill:#8C8E90;}
	.st26{fill:#8AA8B8;}
	.st27{fill:#515254;}
	.st28{fill:#A7CF4C;}
	.st29{fill:#757679;}
	.st30{fill:#5C473A;}
	.st31{fill:#37784D;}
	.st32{fill:#3E8556;}
	.st33{fill:#AD7616;}
	.st34{fill:none;stroke:#FFFFFF;stroke-miterlimit:10;stroke-dasharray:19.96,19.96;}
	.st35{fill:#FBAA26;}
	.st36{fill:#DC1F26;}
	.st37{fill:#787878;}
</style>
<g>
	<g id="background">
		<circle class="st0" cx="159.3" cy="159.3" r="159.3"/>
	</g>
	<circle class="st1" cx="242.5" cy="59.6" r="8.7"/>
	<g id="building">
		
			<rect x="227.8" y="62" transform="matrix(0.6386 -0.7695 0.7695 0.6386 32.6093 201.8232)" class="st2" width="6.9" height="8.4"/>
		
			<rect x="236.2" y="71.1" transform="matrix(0.6386 -0.7695 0.7695 0.6386 30.2712 210.8449)" class="st2" width="6.9" height="4.2"/>
		
			<rect x="228" y="69.6" transform="matrix(0.6386 -0.7695 0.7695 0.6386 25.0029 205.587)" class="st2" width="6.9" height="13.1"/>
		
			<rect x="219.6" y="73" transform="matrix(0.6386 -0.7695 0.7695 0.6386 19.5661 200.297)" class="st2" width="6.9" height="12.6"/>
		<path class="st3" d="M255.5,58l3.7-4.5l0.9-1.1l-1.2-1l-1.3,0.8l0.8-3.9l-1.5-1.3l2.2-2.6l-0.7-0.6l1.2-3.3l1.2-3.3l-3,1.8l-3,1.8
			l-0.7-0.6l-2.2,2.6l-1.5-1.3l-3.7,1.5l0.5-1.4l-1.2-1l-0.9,1.1l-3.7,4.5l-0.8-0.6L229,59.2l0.8,0.6l-5,6l-4.9,6l-5,6L205,89.7
			l1.2,1l7.4-8.9c0.5-0.6,1.3-0.6,1.9-0.2c0.6,0.5,0.6,1.3,0.2,1.9l0,0l-7.3,8.7l1.3,1l7.4-8.9c0.5-0.6,1.3-0.6,1.9-0.2
			s0.6,1.3,0.2,1.9l-7.3,8.9l1.3,1l7.4-8.9c0.5-0.6,1.3-0.6,1.9-0.2c0.6,0.5,0.6,1.3,0.2,1.9l0,0l-7.3,8.9l1.3,1l7.4-8.9
			c0.5-0.6,1.3-0.6,1.9-0.2c0.6,0.5,0.6,1.3,0.2,1.9l-7.3,8.9l1.2,1l9.9-11.9l5-6l4.9-6l5-6l0.8,0.6l11.4-13.7L255.5,58z M254.3,53
			c0.5-0.6,1.3-0.6,1.9-0.2c0.6,0.5,0.6,1.3,0.2,1.9l0,0l-2,2.4l-2-1.8L254.3,53z M232,79.9l3.1-3.8l2.1,1.7l-3.1,3.8L232,79.9z
			 M232.2,83.8l-3.1,3.8l-2-1.7l3.1-3.8L232.2,83.8z M236.9,73.9l3.1-3.8l2.1,1.7l-3.1,3.8L236.9,73.9z M251,50.3
			c0.5-0.6,1.3-0.6,1.9-0.2c0.6,0.5,0.6,1.3,0.2,1.9l-2,2.4l-2.1-1.7L251,50.3z M248.3,63.6c-2.6,3.1-7.2,3.6-10.3,1
			c-3.1-2.6-3.6-7.2-1-10.3c2.6-3.1,7.2-3.6,10.3-1c0,0,0,0,0,0C250.4,55.9,250.9,60.5,248.3,63.6L248.3,63.6z M228.7,77.1l3.1-3.7
			l2.1,1.7l-3.1,3.8L228.7,77.1z M228.9,81.1l-3.1,3.7l-2-1.7l3-3.8L228.9,81.1z M233.6,71.2l3.1-3.7l2.1,1.7l-3.1,3.8L233.6,71.2z
			 M225.3,74.4l3.1-3.8l2.1,1.7l-3.1,3.8L225.3,74.4z M225.6,78.3l-3.1,3.7l-2-1.7l3.1-3.8L225.6,78.3z M230.3,68.4l3.1-3.8l2.1,1.7
			l-3.1,3.8L230.3,68.4z M247.7,47.5c0.5-0.6,1.3-0.6,1.9-0.2s0.6,1.3,0.2,1.9l0,0l-1.9,2.3l-2.1-1.7L247.7,47.5z M244.3,44.8
			c0.5-0.6,1.3-0.6,1.9-0.2c0.6,0.5,0.6,1.3,0.2,1.9l0,0l-2,2.4l-2.1-1.7L244.3,44.8z M230.1,61.9l2.1,1.7l-3.1,3.8l-2.1-1.7
			L230.1,61.9z M225.1,67.9l2.1,1.7l-3.1,3.7l-2.1-1.7L225.1,67.9z M220.2,73.9l2,1.7l-3.1,3.7l-2-1.7L220.2,73.9z"/>
		<polygon class="st3" points="246.8,60.1 246.9,59 243.1,58.8 243.6,52.4 242.5,52.4 242,58.8 242,58.8 242,59.7 		"/>
		<polygon class="st4" points="177.8,261.1 180.5,264 172.1,270.9 180.6,274.4 175.2,282.6 173,297.3 173.1,297.3 199.6,269.8 
			201.3,252.1 216.1,252.7 220.6,212.3 201.5,206.4 193.4,249.3 		"/>
		<polygon class="st5" points="153.1,240.4 143.7,270.3 137.8,276.9 146.9,287.9 157.5,283.2 173,297.3 175.2,282.6 180.6,274.4 
			172.1,270.9 180.5,264 177.8,261.1 193.4,249.3 201.5,206.4 173.5,197.6 		"/>
		<path class="st6" d="M272,88.6l-48,23.3l12.4,25.5l48-23.3L272,88.6z M237.7,114.6l-2-4l4-2l2,4L237.7,114.6z M245.5,110.8l-2-4
			l4-2l2,4L245.5,110.8z M253.3,107.1l-2-4l4-2l1.9,4L253.3,107.1z M261,103.3l-2-4l4-2l2,4L261,103.3z M268.8,99.5l-2-4l4-2l2,4
			L268.8,99.5z M241.3,121.9l-2-4l4-2l2,4L241.3,121.9z M249,118.1l-2-4l4-2l2,4L249,118.1z M256.8,114.3l-2-4l4-2l2,4L256.8,114.3z
			 M264.5,110.6l-2-4l4-2l2,4L264.5,110.6z M272.3,106.8l-2-4l4-2l2,4L272.3,106.8z M244.8,129.2l-2-4l4-2l2,4L244.8,129.2z
			 M252.6,125.4l-2-4l4-2l2,4L252.6,125.4z M260.3,121.6l-2-4l4-2l2,4L260.3,121.6z M268.1,117.9l-2-4l4-2l2,4L268.1,117.9z
			 M275.8,114.1l-2-4l4-2l2,4L275.8,114.1z"/>
		<path class="st7" d="M116.8,81.5L116.8,81.5c-0.4,0.2-0.5,0.6-0.3,1l0.5,0.9l1.3-0.7l-0.5-0.9C117.7,81.4,117.2,81.3,116.8,81.5z"
			/>
		<path class="st7" d="M121.3,78.6L121.3,78.6c-0.3,0.3-0.4,0.7-0.1,1c0,0,0,0,0,0l0.6,0.8l1.2-0.9l-0.6-0.8
			C122.1,78.4,121.6,78.3,121.3,78.6C121.3,78.6,121.3,78.6,121.3,78.6z"/>
		<path class="st7" d="M111.9,83.7L111.9,83.7c0.4-0.2,0.8,0,1,0.4c0,0,0,0,0,0.1l0.3,0.9l-1.4,0.5l-0.3-0.9
			C111.4,84.2,111.6,83.8,111.9,83.7z"/>
		<path class="st8" d="M129.9,39.8l-0.3-0.6l-1.8,1c-0.7-1.3-1.6-2.5-2.5-3.7l1.6-1.3l-0.4-0.5l-1.6,1.3c-0.9-1.2-2-2.2-3.1-3.2
			l1.4-1.5l-0.5-0.4l-1.4,1.6c-1.1-1-2.3-1.8-3.6-2.6l1.1-1.8l-0.6-0.4l-1.1,1.8c-1.3-0.8-2.6-1.4-4-2l0.8-1.9l-0.6-0.3l-0.8,1.9
			c-1.4-0.5-2.8-0.9-4.3-1.3l0.4-2l-0.7-0.1l-0.4,2c-1.5-0.3-2.9-0.4-4.4-0.5l0-2.1h-0.7l-0.1,2.1c-1.5,0-3,0.1-4.5,0.3l-0.3-2
			l-0.7,0.1l0.3,2c-1.5,0.2-2.9,0.6-4.3,1l-0.6-2l-0.6,0.2l0.7,2c-1.4,0.5-2.8,1.1-4.1,1.8l-1-1.9l-0.6,0.3l1,1.9
			c-1.3,0.7-2.5,1.6-3.7,2.5l-1.3-1.6l-0.5,0.4l1.3,1.6c-1.2,0.9-2.2,2-3.2,3.1l-1.6-1.4L78.2,34l1.6,1.4c-1,1.1-1.9,2.3-2.6,3.6
			l-1.8-1.1L75,38.4l1.8,1.1c-0.8,1.3-1.4,2.6-2,4l-2-0.8l-0.3,0.6l2,0.8c-0.5,1.4-0.9,2.8-1.3,4.3L71.3,48l-0.1,0.7l2.1,0.4
			c-0.3,1.5-0.4,2.9-0.5,4.4l-2.1,0v0.7l2.1,0c0,1.5,0.1,3,0.3,4.5L70.9,59l0.1,0.7l2.1-0.3c0.2,1.5,0.6,2.9,1,4.3l-2,0.7l0.2,0.6
			l2-0.7c0.5,1.4,1.1,2.8,1.8,4.1l-1.9,1l0.3,0.6l1.9-1c0.7,1.3,1.6,2.5,2.5,3.7L77.2,74l0.4,0.5l1.6-1.3c0.9,1.2,2,2.2,3.1,3.2
			L81,78l0.5,0.4l1.4-1.6c1.1,1,2.3,1.9,3.6,2.6l-1,1.8l0.6,0.4l1.1-1.8c1.3,0.8,2.6,1.4,4,2l-0.8,2l0.6,0.2l0.8-2
			c1.4,0.5,2.8,1,4.3,1.3l-0.4,2.1l0.7,0.1l0.4-2.1c1.5,0.3,2.9,0.4,4.4,0.5l-0.1,2.1h0.7V84c1.5,0,3-0.1,4.5-0.3l0.3,2.1l0.7-0.1
			l-0.3-2.1c1.5-0.2,2.9-0.6,4.3-1l0.7,2l0.6-0.2l-0.7-2c1.4-0.5,2.8-1.1,4.1-1.8l1,1.8l0.6-0.3l-1-1.8c1.3-0.7,2.5-1.5,3.7-2.5
			l1.3,1.6L122,79l-1.2-1.6c1.2-0.9,2.2-2,3.2-3.1l1.5,1.4l0.5-0.5l-1.5-1.4c1-1.1,1.9-2.3,2.6-3.6l1.8,1.1l0.3-0.6l-1.8-1.1
			c0.8-1.3,1.4-2.6,2-4l1.9,0.8l0.2-0.6l-1.9-0.8c0.5-1.4,0.9-2.8,1.3-4.3l2,0.4l0.1-0.7l-2-0.4c0.3-1.5,0.4-2.9,0.5-4.4l2.1,0V55
			l-2.1,0c0-1.5-0.1-3-0.3-4.5l2-0.3l-0.1-0.7l-2,0.3c-0.2-1.5-0.6-2.9-1-4.3l2-0.7l-0.2-0.6l-2,0.7c-0.5-1.4-1.1-2.8-1.8-4.1
			L129.9,39.8z M127.2,40.5l-21.9,11.9l19.4-15.6C125.7,38.1,126.5,39.3,127.2,40.5z M124.4,36.4L104.9,52l16.5-18.7
			C122.5,34.2,123.5,35.3,124.4,36.4z M120.9,32.8l-16.5,18.7l13-21.3C118.6,31,119.8,31.9,120.9,32.8L120.9,32.8z M116.8,29.9
			l-13,21.3l9.1-23.2C114.2,28.5,115.5,29.1,116.8,29.9z M112.3,27.7l-9.1,23.2l4.9-24.4C109.5,26.8,110.9,27.2,112.3,27.7
			L112.3,27.7z M107.5,26.3l-4.9,24.4l0.6-24.9C104.6,25.9,106.1,26,107.5,26.3z M102.5,25.8l-0.6,24.9l-3.8-24.6
			C99.6,25.9,101,25.8,102.5,25.8L102.5,25.8z M97.5,26.2l3.7,24.6l-8-23.6C94.6,26.8,96,26.4,97.5,26.2L97.5,26.2z M92.6,27.4
			l8,23.6L88.7,29.2C89.9,28.5,91.3,27.9,92.6,27.4L92.6,27.4z M88,29.5L100,51.4L84.4,31.9C85.6,31,86.8,30.2,88,29.5L88,29.5z
			 M83.9,32.3l15.6,19.5L80.8,35.3C81.8,34.2,82.8,33.2,83.9,32.3z M80.3,35.8L99,52.3l-21.3-13C78.6,38.1,79.4,36.9,80.3,35.8
			L80.3,35.8z M77.4,39.9l21.3,13l-23.2-9.1C76,42.5,76.7,41.2,77.4,39.9L77.4,39.9z M75.3,44.4l23.2,9.1L74,48.6
			C74.3,47.2,74.7,45.8,75.3,44.4L75.3,44.4z M73.9,49.3l24.4,4.9l-24.9-0.6C73.5,52.2,73.6,50.7,73.9,49.3z M73.4,54.3l24.9,0.6
			l-24.6,3.7C73.5,57.2,73.4,55.7,73.4,54.3L73.4,54.3z M73.8,59.3l24.6-3.7l-23.6,8C74.3,62.2,74,60.7,73.8,59.3L73.8,59.3z
			 M75,64.2l23.6-8L76.8,68.1C76.1,66.8,75.5,65.5,75,64.2L75,64.2z M77.1,68.8l21.9-11.9L79.5,72.3C78.6,71.2,77.8,69.9,77.1,68.8
			L77.1,68.8z M79.9,72.9l19.5-15.6L82.9,76C81.8,75,80.8,74,79.9,72.9L79.9,72.9z M83.4,76.5l16.5-18.7l-13,21.3
			C85.6,78.3,84.5,77.4,83.4,76.5L83.4,76.5z M87.5,79.4l13-21.3l-9.1,23.2C90,80.8,88.7,80.1,87.5,79.4L87.5,79.4z M92,81.6
			l9.1-23.2l-4.9,24.4C94.7,82.5,93.3,82,92,81.6L92,81.6z M96.8,82.9l4.9-24.4l-0.6,24.8C99.7,83.3,98.2,83.1,96.8,82.9L96.8,82.9z
			 M101.8,83.4l0.6-24.9l3.8,24.6c-1.4,0.2-2.9,0.2-4.4,0.2L101.8,83.4z M106.8,83.1l-3.8-24.7l8,23.6
			C109.7,82.4,108.2,82.8,106.8,83.1L106.8,83.1z M111.7,81.8l-8-23.6l12,21.9C114.3,80.7,113,81.3,111.7,81.8L111.7,81.8z
			 M116.2,79.8l-12-21.9l15.5,19.4C118.7,78.2,117.5,79,116.2,79.8L116.2,79.8z M120.4,76.9l-15.6-19.5l18.7,16.5
			C122.5,74.9,121.5,75.9,120.4,76.9L120.4,76.9z M124,73.4L105.3,57l21.3,13c-0.8,1.2-1.6,2.3-2.6,3.4L124,73.4z M126.9,69.4
			l-21.3-13l23.2,9.1C128.2,66.8,127.6,68.1,126.9,69.4L126.9,69.4z M129,64.8l-23.2-9.1l24.4,4.9C130,62.1,129.5,63.4,129,64.8
			L129,64.8z M130.4,60L106,55.1l24.9,0.6C130.8,57.1,130.7,58.5,130.4,60L130.4,60z M130.9,55L106,54.3l24.6-3.7
			C130.8,52,130.9,53.5,130.9,55L130.9,55z M130.5,50l-24.6,3.7l23.6-8C130,47.1,130.3,48.5,130.5,50L130.5,50z M129.3,45.2l-23.6,8
			l21.9-11.9C128.2,42.5,128.8,43.8,129.3,45.2L129.3,45.2z"/>
		<path class="st7" d="M87.4,27.7L87.4,27.7c-0.4,0.2-0.8,0.1-1-0.3L86,26.5l1.3-0.7l0.5,0.9C88,27,87.8,27.5,87.4,27.7
			C87.5,27.7,87.5,27.7,87.4,27.7z"/>
		<path class="st7" d="M83,30.6L83,30.6c-0.3,0.2-0.7,0.2-1-0.1l-0.6-0.8l1.2-0.9l0.6,0.8C83.4,29.9,83.3,30.4,83,30.6
			C83,30.6,83,30.6,83,30.6z"/>
		<path class="st7" d="M79.1,34.3L79.1,34.3c-0.3,0.3-0.7,0.3-1,0.1c0,0,0,0,0,0l-0.8-0.7l1-1.1l0.8,0.7
			C79.4,33.5,79.4,34,79.1,34.3C79.1,34.3,79.1,34.3,79.1,34.3z"/>
		<path class="st7" d="M125.2,74.9L125.2,74.9c-0.3,0.3-0.2,0.8,0.1,1.1c0,0,0,0,0,0l0.8,0.7l1-1.1l-0.8-0.7
			C125.9,74.5,125.4,74.6,125.2,74.9z"/>
		<path class="st7" d="M75.9,38.6L75.9,38.6c-0.2,0.3-0.7,0.4-1,0.3l-0.9-0.5l0.8-1.3l0.9,0.5C76.1,37.8,76.2,38.3,75.9,38.6
			C76,38.6,76,38.6,75.9,38.6z"/>
		<path class="st7" d="M128.3,70.6L128.3,70.6c-0.2,0.3-0.1,0.8,0.3,1l0.9,0.5l0.8-1.3l-0.9-0.5C129,70.1,128.6,70.2,128.3,70.6
			C128.3,70.6,128.3,70.6,128.3,70.6z"/>
		<path class="st7" d="M73.6,43.4L73.6,43.4c-0.1,0.4-0.6,0.6-1,0.4c0,0,0,0,0,0l-0.9-0.4l0.6-1.4l0.9,0.4
			C73.5,42.6,73.7,43,73.6,43.4C73.6,43.4,73.6,43.4,73.6,43.4z"/>
		<path class="st7" d="M130.7,65.8L130.7,65.8c-0.2,0.4,0,0.8,0.4,1c0,0,0,0,0,0l0.9,0.4l0.5-1.4l-0.9-0.4
			C131.3,65.2,130.9,65.4,130.7,65.8z"/>
		<path class="st7" d="M72.1,48.6L72.1,48.6c-0.1,0.4-0.5,0.7-0.9,0.6c0,0,0,0,0,0l-1-0.2l0.3-1.5l1,0.2
			C71.9,47.8,72.1,48.2,72.1,48.6z"/>
		<path class="st7" d="M132.2,60.6L132.2,60.6c-0.1,0.4,0.2,0.8,0.6,0.9l1,0.2l0.3-1.5l-1-0.2C132.7,60,132.3,60.2,132.2,60.6z"/>
		<path class="st7" d="M71.5,53.9L71.5,53.9c0,0.4-0.3,0.7-0.7,0.7c0,0,0,0,0,0h-1v-1.5h1C71.1,53.1,71.5,53.4,71.5,53.9
			C71.5,53.9,71.5,53.9,71.5,53.9z"/>
		<path class="st7" d="M132.8,55.3L132.8,55.3c0,0.4,0.3,0.8,0.7,0.8c0,0,0,0,0,0h1v-1.5h-1C133.1,54.6,132.8,54.9,132.8,55.3z"/>
		<path class="st7" d="M71.8,59.2L71.8,59.2c0.1,0.4-0.2,0.8-0.6,0.9l-1,0.1l-0.2-1.5l1-0.1C71.3,58.5,71.7,58.8,71.8,59.2z"/>
		<path class="st7" d="M132.5,50L132.5,50c0.1,0.4,0.4,0.7,0.9,0.6l1-0.1l-0.2-1.5l-1,0.1C132.7,49.2,132.4,49.6,132.5,50z"/>
		<path class="st7" d="M73.1,64.4L73.1,64.4c0.1,0.4-0.1,0.8-0.5,1l-0.9,0.3l-0.5-1.4l1-0.3C72.6,63.8,72.9,64,73.1,64.4z"/>
		<path class="st7" d="M131.2,44.8L131.2,44.8c0.1,0.4,0.5,0.6,0.9,0.5c0,0,0,0,0,0l1-0.3l-0.5-1.4l-1,0.3
			C131.3,44,131.1,44.4,131.2,44.8z"/>
		<path class="st7" d="M75.2,69.3L75.2,69.3c0.2,0.4,0.1,0.8-0.3,1L74,70.8l-0.7-1.3l0.9-0.5C74.6,68.8,75,68.9,75.2,69.3
			C75.2,69.3,75.2,69.3,75.2,69.3z"/>
		<path class="st7" d="M129.1,39.9L129.1,39.9c0.2,0.4,0.6,0.5,1,0.3l0.9-0.5l-0.7-1.3l-0.9,0.5C129,39.1,128.9,39.6,129.1,39.9z"/>
		<path class="st7" d="M78.2,73.8L78.2,73.8c0.3,0.3,0.2,0.8-0.1,1.1l-0.8,0.6l-0.9-1.2l0.8-0.6C77.5,73.4,77.9,73.4,78.2,73.8z"/>
		<path class="st7" d="M126.1,35.5L126.1,35.5c0.3,0.3,0.7,0.4,1,0.1c0,0,0,0,0,0l0.8-0.6l-0.9-1.2l-0.8,0.6
			C125.9,34.7,125.8,35.1,126.1,35.5z"/>
		<path class="st7" d="M81.9,77.6L81.9,77.6c0.3,0.3,0.3,0.7,0.1,1.1l-0.7,0.8l-1.1-1l0.7-0.8C81.1,77.4,81.6,77.3,81.9,77.6z"/>
		<path class="st7" d="M122.4,31.6L122.4,31.6c0.3,0.3,0.8,0.2,1.1-0.1l0.7-0.8l-1.1-1l-0.7,0.8C122.1,30.8,122.1,31.3,122.4,31.6z"
			/>
		<path class="st7" d="M86.2,80.8L86.2,80.8c0.3,0.2,0.4,0.7,0.3,1l-0.5,0.9l-1.3-0.8l0.5-0.9C85.4,80.7,85.8,80.6,86.2,80.8z"/>
		<path class="st7" d="M118.1,28.4L118.1,28.4c0.3,0.2,0.8,0.1,1-0.3l0.5-0.9l-1.3-0.8l-0.5,0.9C117.6,27.7,117.7,28.2,118.1,28.4z"
			/>
		<path class="st7" d="M91,83.2L91,83.2c0.4,0.2,0.6,0.6,0.4,1c0,0,0,0,0,0L91,85.1l-1.4-0.5l0.4-0.9C90.1,83.2,90.6,83,91,83.2
			C91,83.2,91,83.2,91,83.2z"/>
		<path class="st7" d="M113.3,26L113.3,26c0.4,0.2,0.8,0,1-0.4c0,0,0,0,0,0l0.4-0.9l-1.4-0.5l-0.4,0.9
			C112.8,25.4,112.9,25.9,113.3,26z"/>
		<path class="st7" d="M96.1,84.7L96.1,84.7c0.4,0.1,0.7,0.5,0.6,0.9c0,0,0,0,0,0l-0.2,1L95,86.3l0.2-1
			C95.3,84.8,95.7,84.6,96.1,84.7C96.1,84.7,96.1,84.7,96.1,84.7z"/>
		<path class="st7" d="M108.2,24.5L108.2,24.5c0.4,0.1,0.8-0.2,0.9-0.6l0.2-1l-1.5-0.3l-0.2,1C107.5,24.1,107.8,24.5,108.2,24.5
			C108.2,24.5,108.2,24.5,108.2,24.5z"/>
		<path class="st7" d="M101.4,85.3L101.4,85.3c0.4,0,0.7,0.4,0.7,0.8v1h-1.5v-1C100.6,85.6,101,85.3,101.4,85.3
			C101.4,85.3,101.4,85.3,101.4,85.3z"/>
		<path class="st7" d="M102.9,23.9L102.9,23.9c0.4,0,0.8-0.3,0.8-0.7c0,0,0,0,0,0v-1h-1.5v1C102.2,23.6,102.5,23.9,102.9,23.9z"/>
		<path class="st7" d="M106.8,84.9L106.8,84.9c0.4-0.1,0.8,0.2,0.9,0.6l0.1,1l-1.5,0.2l-0.2-1C106.1,85.4,106.4,85,106.8,84.9z"/>
		<path class="st7" d="M97.5,24.3L97.5,24.3c0.4-0.1,0.7-0.4,0.6-0.9l-0.1-1l-1.5,0.2l0.1,1C96.7,24.1,97.1,24.4,97.5,24.3z"/>
		<path class="st7" d="M92.3,25.5L92.3,25.5c0.4-0.1,0.6-0.5,0.5-0.9c0,0,0,0,0-0.1l-0.3-1l-1.4,0.5l0.3,1
			C91.5,25.4,91.9,25.7,92.3,25.5C92.3,25.5,92.3,25.5,92.3,25.5z"/>
		<path class="st9" d="M137.1,70.7l-31.3-15.5c0.3-2-1.1-3.9-3.1-4.2c-2-0.3-3.9,1.1-4.2,3.1c-0.3,1.7,0.6,3.3,2.2,4l-3.8,34.7
			c0,0.2,0,0.5,0.1,0.7l6.5,11.9c0.3,0.6,1,0.8,1.5,0.5s0.8-1,0.5-1.5l0,0l-6.3-11.6l3.8-34.3c0.8-0.1,1.5-0.5,2-1.1l30.9,15.3
			l6.3,11.6c0.3,0.6,1,0.8,1.5,0.5s0.8-1,0.5-1.5l-6.5-11.9C137.5,70.9,137.3,70.8,137.1,70.7z"/>
		<path class="st10" d="M146,267.2l8.2-29.4l-30.9-8.6l-8.2,29.4L146,267.2z M145,256.2l2.6,0.7l-1.4,5.1c-0.2,0.7-1,1.1-1.7,0.9
			l0,0c-0.7-0.2-1.1-0.9-1-1.7c0,0,0,0,0,0L145,256.2z M140.7,255l2.6,0.7l-1.5,5c-0.2,0.7-0.9,1.1-1.7,0.9c0,0,0,0,0,0l0,0
			c-0.7-0.2-1.1-0.9-1-1.7c0,0,0,0,0,0L140.7,255z M136.3,253.8l2.6,0.7l-1.4,5.1c-0.2,0.7-0.9,1.2-1.7,1s-1.2-0.9-1-1.7
			c0,0,0,0,0,0L136.3,253.8z M132,252.6l2.6,0.7l-1.5,5c-0.2,0.7-0.9,1.2-1.7,1s-1.2-0.9-1-1.7c0,0,0,0,0,0L132,252.6z M127.7,251.4
			l2.6,0.7l-1.4,5.1c-0.2,0.7-0.9,1.2-1.7,1s-1.2-0.9-1-1.7c0,0,0,0,0,0L127.7,251.4z M123.4,250.2l2.6,0.7l-1.4,5.1
			c-0.2,0.7-1,1.2-1.7,0.9c-0.7-0.2-1.2-1-1-1.7L123.4,250.2z M119.1,249l2.6,0.7l-1.4,5.1c-0.2,0.7-0.9,1.2-1.7,1
			c-0.7-0.2-1.2-0.9-1-1.7L119.1,249z"/>
		
			<rect x="132.8" y="221.9" transform="matrix(0.2677 -0.9635 0.9635 0.2677 -128.5959 306.6479)" class="st11" width="9.3" height="32"/>
		
			<rect x="124.6" y="250.3" transform="matrix(0.2677 -0.9635 0.9635 0.2677 -161.7321 319.8396)" class="st11" width="10" height="32"/>
		<path class="st12" d="M124.3,286.7l21.8-11.2c0.3-0.1,0.4-0.5,0.2-0.8c-0.1-0.1-0.2-0.2-0.4-0.3l-34.8-9.7
			c-0.3-0.1-0.6,0.1-0.7,0.4c0,0.2,0,0.3,0.1,0.5l12.9,20.9C123.7,286.7,124.1,286.8,124.3,286.7z"/>
		<path class="st13" d="M114,241.8l-9.4,5.3l17.4,26.7l2.6-1.5l1.2,2.2c-0.5,0.4-0.7,1.2-0.5,1.8l-2.2,1.2l-1.5-2.6L93,288.7
			l5.3,9.4l26.7-17.4l-1.5-2.6l2.2-1.2c0.5,0.5,1.2,0.7,1.8,0.5l1.2,2.2l-2.6,1.5l13.9,28.7l9.4-5.3l-17.4-26.7l-2.6,1.5l-1.2-2.2
			c0.5-0.4,0.7-1.2,0.5-1.8l2.2-1.2l1.5,2.6l28.7-13.9l-5.3-9.4l-26.7,17.4l1.5,2.6l-2.2,1.2c-0.4-0.5-1.2-0.7-1.8-0.5l-1.2-2.2
			l2.6-1.5L114,241.8z M107.1,249.6l-1.5-2.3l3.8-2.1l1.3,2.4L107.1,249.6z M111.3,247.2l-1.3-2.4l3.8-2.1l1.2,2.5L111.3,247.2z
			 M108.7,252.2l-1.3-2l3.6-2l1.2,2.1L108.7,252.2z M112.7,249.9l-1.2-2l3.6-2l1,2.1L112.7,249.9z M110.4,254.7l-1.3-2l3.4-1.9
			l1.2,2.1L110.4,254.7z M114.2,252.5l-1.2-2.1l3.4-1.9l1,2.1L114.2,252.5z M112.1,257.3l-1.3-2l3.2-1.8l1.2,2.1L112.1,257.3z
			 M115.8,255.2l-1.2-2.1l3.2-1.8l1,2.1L115.8,255.2z M113.8,259.9l-1.3-2l3-1.7l1.2,2.1L113.8,259.9z M117.3,257.9l-1.2-2.1l3-1.7
			l1,2.1L117.3,257.9z M115.5,262.5l-1.3-2l2.9-1.6l1.2,2.1L115.5,262.5z M118.8,260.6l-1.2-2.1l2.9-1.6l1,2.1L118.8,260.6z
			 M117.1,265l-1.3-2l2.7-1.5l1.2,2.1L117.1,265z M120.3,263.2l-1.2-2.1l2.7-1.5l1,2.1L120.3,263.2z M118.8,267.6l-1.3-2l2.5-1.4
			l1.2,2.1L118.8,267.6z M121.8,265.9l-1.2-2.1l2.5-1.4l1,2.1L121.8,265.9z M120.5,270.1l-1.3-2l2.4-1.3l1.2,2.1L120.5,270.1z
			 M123.3,268.5l-1.2-2.1l2.4-1.3l1,2.1L123.3,268.5z M122.2,272.8l-1.4-2.1l2.2-1.2l1.2,2.2L122.2,272.8z M124.9,271.3l-1.2-2.2
			l2.2-1.2l1.1,2.3L124.9,271.3z M96.1,292.8L94,289l2.4-1.2l2,3.6L96.1,292.8z M99.1,291.1l-2-3.6l2.1-1l1.9,3.4L99.1,291.1z
			 M101.8,289.6l-2-3.4l2.1-1l1.8,3.3L101.8,289.6z M104.4,288.1l-1.8-3.2l2.1-1l1.8,3.1L104.4,288.1z M107.1,286.6l-1.7-3l2.1-1
			l1.6,2.9L107.1,286.6z M109.8,285.1l-1.6-2.9l2.1-1l1.5,2.7L109.8,285.1z M112.4,283.6l-1.5-2.7l2.1-1l1.5,2.6L112.4,283.6z
			 M115.1,282.1l-1.4-2.5l2.1-1l1.4,2.4L115.1,282.1z M117.8,280.5l-1.3-2.4l2.1-1l1.3,2.2L117.8,280.5z M120.4,279l-1.2-2.2
			l2.3-1.1l1.2,2L120.4,279z M146.9,301.8l1.5,2.3l-3.8,2.1l-1.3-2.4L146.9,301.8z M142.7,304.2l1.3,2.4l-3.8,2.1l-1.2-2.5
			L142.7,304.2z M145.2,299.3l1.3,2l-3.6,2l-1.2-2.1L145.2,299.3z M141.2,301.6l1.2,2l-3.6,2l-1-2.1L141.2,301.6z M143.6,296.7
			l1.3,2l-3.4,1.9l-1.2-2.1L143.6,296.7z M139.7,298.9l1.2,2.1l-3.4,1.9l-1-2.1L139.7,298.9z M141.9,294.1l1.3,2L140,298l-1.2-2.1
			L141.9,294.1z M138.2,296.2l1.2,2.1l-3.2,1.8l-1-2.1L138.2,296.2z M140.2,291.6l1.3,2l-3.1,1.7l-1.2-2.1L140.2,291.6z
			 M136.7,293.6l1.2,2.1l-3.1,1.7l-1-2.1L136.7,293.6z M138.6,289l1.3,2l-2.9,1.6l-1.2-2.1L138.6,289z M135.2,290.9l1.2,2.1
			l-2.9,1.6l-1-2.1L135.2,290.9z M136.8,286.4l1.3,2l-2.7,1.5l-1.2-2.1L136.8,286.4z M133.6,288.2l1.2,2.1l-2.7,1.5l-1-2.1
			L133.6,288.2z M135.1,283.8l1.3,2l-2.5,1.5l-1.2-2.1L135.1,283.8z M132.1,285.5l1.2,2.1l-2.5,1.4l-1-2.1L132.1,285.5z
			 M133.4,281.3l1.3,2l-2.4,1.3l-1.2-2.1L133.4,281.3z M130.6,282.9l1.2,2.1l-2.4,1.4l-1-2.1L130.6,282.9z M131.7,278.6l1.4,2.1
			l-2.2,1.2l-1.2-2.2L131.7,278.6z M129,280.1l1.2,2.2l-2.2,1.2l-1.1-2.2L129,280.1z M157.8,258.7l2.1,3.8l-2.5,1.2l-2-3.6
			L157.8,258.7z M154.8,260.4l2,3.6l-2.1,1l-1.9-3.4L154.8,260.4z M152.1,261.9l1.9,3.4l-2.1,1l-1.8-3.3L152.1,261.9z M149.5,263.4
			l1.8,3.2l-2.1,1l-1.7-3.1L149.5,263.4z M146.8,264.9l1.7,3l-2.1,1l-1.6-2.9L146.8,264.9z M144.1,266.4l1.6,2.9l-2.1,1l-1.5-2.7
			L144.1,266.4z M141.5,267.9l1.5,2.7l-2.1,1l-1.5-2.6L141.5,267.9z M138.8,269.4l1.4,2.5l-2.1,1l-1.4-2.4L138.8,269.4z
			 M136.1,270.9l1.3,2.4l-2.1,1l-1.3-2.2L136.1,270.9z M133.5,272.4l1.2,2.2l-2.3,1.1l-1.1-2L133.5,272.4z M98.5,297.1l-2-3.8
			l2.4-1.3l2,3.6L98.5,297.1z M101.3,295.2l-2-3.6l2.1-1.2l1.9,3.4L101.3,295.2z M103.9,293.6l-1.9-3.4l2-1.2l1.9,3.3L103.9,293.6z
			 M106.5,291.9l-1.7-3.2l2.1-1.2l1.8,3.1L106.5,291.9z M109,290.2l-1.7-3l2.1-1.2l1.6,2.9L109,290.2z M111.6,288.5l-1.6-2.9
			l2.1-1.2l1.5,2.7L111.6,288.5z M114.2,286.9l-1.5-2.7l2.1-1.2l1.5,2.6L114.2,286.9z M116.7,285.2l-1.4-2.5l2.1-1.2l1.4,2.4
			L116.7,285.2z M119.3,283.5l-1.3-2.4l2.1-1.2l1.3,2.2L119.3,283.5z M124,280.5l-2.1,1.4l-1.2-2.2l2.2-1.2L124,280.5z M155.4,254.3
			l2.1,3.8l-2.4,1.3l-2-3.6L155.4,254.3z M152.5,256.2l2,3.6l-2,1.2l-1.9-3.4L152.5,256.2z M149.9,257.9l1.9,3.4l-2.1,1.1l-1.8-3.3
			L149.9,257.9z M147.4,259.5l1.8,3.2l-2.1,1.2l-1.7-3.1L147.4,259.5z M144.8,261.2l1.7,3l-2.1,1.2l-1.7-2.9L144.8,261.2z
			 M142.2,262.9l1.6,2.9l-2,1.2l-1.5-2.7L142.2,262.9z M139.6,264.6l1.5,2.7l-2.1,1.2l-1.5-2.6L139.6,264.6z M137.1,266.3l1.4,2.5
			l-2.1,1.2l-1.4-2.4L137.1,266.3z M134.5,267.9l1.3,2.4l-2.1,1.2l-1.3-2.2L134.5,267.9z M129.9,270.9l2.1-1.4l1.2,2.2L131,273
			L129.9,270.9z"/>
		<path class="st14" d="M50.9,102l-12-3.9l-4.9-1.6L30,108.6l9.1,3l-20.4,2.5L34,127.3l-9.1-3L21,136.4l4.9,1.6l12,3.9l16.5,5.4
			l13-40L50.9,102z M48.6,142.2l-10.2-3.3l-3.8-5l6-1.8l10.2,3.3L48.6,142.2z M51.7,124.3c-1.3,3.9-5.4,6-9.3,4.7
			c-3.9-1.3-6-5.4-4.7-9.3c1.3-3.9,5.4-6,9.3-4.7C50.8,116.2,52.9,120.4,51.7,124.3C51.7,124.3,51.7,124.3,51.7,124.3L51.7,124.3z
			 M47.3,111.5l-3.8-5l6-1.8l10.2,3.3l-2.2,6.8L47.3,111.5z"/>
		<path class="st14" d="M86.2,122.5l-0.4,1.3l-12.4-4l-4.6-6l7.2-2.2l12.4,4l1.3-4.1L69,104.7l-14.9,45.6l20.8,6.8L86.2,122.5z
			 M59.3,142.9l7.2-2.2l12.4,4l-2.7,8.3l-12.4-4L59.3,142.9z"/>
		<polygon class="st14" points="88.4,115.5 88.4,115.5 86.2,122.5 		"/>
		<polygon class="st15" points="49.8,147.1 48.5,147.6 49.3,148.8 54.1,150.3 54.7,148.6 		"/>
		<polygon class="st15" points="53.1,137 51.8,137.5 52.5,138.7 57.4,140.3 58,138.6 		"/>
		<polygon class="st15" points="16.3,134.4 15.1,134.8 15.8,135.8 20,137.2 20.5,135.7 		"/>
		<polygon class="st15" points="17.6,130.3 16.5,130.7 17.1,131.7 21.4,133.1 21.8,131.6 		"/>
		<polygon class="st15" points="20.3,122.1 19.1,122.5 19.8,123.5 24,124.9 24.5,123.4 		"/>
		<polygon class="st15" points="25.4,106.4 24.3,106.9 24.9,107.9 29.1,109.3 29.6,107.8 		"/>
		<polygon class="st15" points="26.7,102.3 25.6,102.8 26.3,103.8 30.5,105.1 30.9,103.7 		"/>
		<polygon class="st15" points="29.4,94.1 28.3,94.6 28.9,95.6 33.1,96.9 33.6,95.5 		"/>
		<polygon class="st15" points="60.9,113.2 59.5,113.7 60.3,114.9 65.2,116.4 65.7,114.7 		"/>
		<polygon class="st15" points="64.1,103.1 62.8,103.6 63.6,104.8 68.4,106.4 69,104.7 		"/>
		
			<rect x="35.7" y="126.8" transform="matrix(0.3095 -0.9509 0.9509 0.3095 -78.9346 145.9216)" class="st16" width="50.6" height="1"/>
		
			<rect x="36.7" y="127.1" transform="matrix(0.3095 -0.9509 0.9509 0.3095 -78.5707 147.0771)" class="st15" width="50.6" height="1"/>
		
			<rect x="14.4" y="129.7" transform="matrix(0.3095 -0.9509 0.9509 0.3095 -108.7396 110.604)" class="st14" width="14.8" height="1"/>
		
			<rect x="15.4" y="130" transform="matrix(0.3095 -0.9509 0.9509 0.3095 -108.3576 111.7654)" class="st15" width="14.8" height="1"/>
		
			<rect x="23.5" y="101.7" transform="matrix(0.3095 -0.9509 0.9509 0.3095 -75.8755 99.9544)" class="st14" width="14.8" height="1"/>
		
			<rect x="24.5" y="102" transform="matrix(0.3095 -0.9509 0.9509 0.3095 -75.4935 101.1157)" class="st15" width="14.8" height="1"/>
		<path class="st17" d="M57.8,124.9l-0.3-0.1c-0.6-0.2-1.2,0.1-1.4,0.6l-4.8-1.5c-0.1-0.1-0.3,0-0.4,0.1c-0.1,0.1,0,0.3,0.1,0.4
			c0,0,0,0,0.1,0l4.8,1.5c-0.1,0.6,0.2,1.2,0.8,1.4l0.3,0.1c-0.4,3.4,1.5,6.6,4.8,7.8l4.5-13.8C62.9,120.4,59.4,121.9,57.8,124.9z"
			/>
		
			<rect x="70.5" y="127.7" transform="matrix(0.3095 -0.9509 0.9509 0.3095 -72.6129 165.4332)" class="st18" width="14.2" height="10"/>
		
			<rect x="72.6" y="130.6" transform="matrix(0.3095 -0.9509 0.9509 0.3095 -71.8289 167.8739)" class="st17" width="14.2" height="5.6"/>
		
			<rect x="61.8" y="124.9" transform="matrix(0.3095 -0.9509 0.9509 0.3095 -75.9495 155.1555)" class="st17" width="14.2" height="10"/>
		<path class="st15" d="M74,130.4l-0.7,2c-0.6,1.6,0.3,3.4,2,4c0,0,0,0,0,0l5.7,1.9l2.6-8l-5.7-1.9C76.3,127.8,74.6,128.7,74,130.4
			C74,130.4,74,130.4,74,130.4z"/>
		
			<rect x="59.2" y="128.9" transform="matrix(0.3095 -0.9509 0.9509 0.3095 -76.4548 153.5788)" class="st15" width="16.6" height="1.1"/>
		
			<rect x="56.1" y="127.9" transform="matrix(0.3095 -0.9509 0.9509 0.3095 -77.6361 149.9484)" class="st15" width="16.6" height="1.1"/>
		<path class="st14" d="M21.7,115c0,0.1-0.2,0.2-0.3,0.2c0,0,0,0,0,0l-8.3-2.7c-0.1,0-0.2-0.2-0.2-0.3c0-0.1,0.2-0.2,0.3-0.2
			c0,0,0,0,0,0l8.3,2.7C21.7,114.7,21.8,114.9,21.7,115z"/>
		<path class="st19" d="M201.2,23c0.2-1,0-2-0.5-2.8c0.3-0.7,1.1-1,1.9-0.7c0,0,0,0,0,0c0,0,0.1,0,0.2,0s0-0.1,0-0.2l0,0
			c-1.4-1.3-5.2-4-10.1-0.4l-3.3-0.6c0,0,0.8-1.2-1.9-3.1c0,0,1,0.2,1.1-0.4l0.1-0.7l0.3-0.9c0,0,0.6-1.6,0-2s-2.6-1.4-3.1,0.7
			c-0.1,0.6-0.2,1.3-0.4,1.9c-0.2,0.4-0.9,0.4-1,0.6c-0.3,0.5,0.1,0.7-0.1,0.7c-0.9,0.3-2.8,2.9-2.8,3.6s-0.5,0.5-1,1.2
			s0.4,1-0.1,1.9c-0.3,0.5-0.3,1.1-0.1,1.7c0,0-3.4-1.4-6.3-0.2c0,0-5.2-2.4-6.1,2.3c-1.4,7.8-4.2,5.7-4,8.6c0.1,1.7-0.2,3.4-0.9,5
			c0,0,4.6-1.8,6.8-11.2c1.2-5.1,3.6-3.8,3.6-3.8s-3.3,2.2-0.9,8.4c-1,1-2.1,1.9-3.3,2.7c-0.8,0.3-0.7,1.5-1.1,2.1s-2.4,3.7-1.7,4.7
			c0.5,0.8,0.8,1.7,1,2.7l2.2,0.4c0,0-0.6-2.6-1.8-3.4c0,0,0.6-4.7,4-5.4c0,0-1.2,0.3,0.5,2s3.4,3.7,3.4,3.7s-1,1.3-0.7,1.8
			c0.4,0.5,0.8,1,1.2,1.4c0,0,1.5-2.5,0.6-4.2c0,0-3.5-3.1-3.2-3.5s4.7-1.1,5.8-4.5c2.7,2.6,6.4,3.8,10.1,3.4c0,0,1.2,1,0.2,3.1
			s-3,7.1-2.3,7.9c0.4,0.4,0.7,1,0.8,1.6l1.6,0.3c-0.3-1-0.8-1.9-1.4-2.7c0,0,1.2-4.3,2.4-5.3s2.7-2.9,2.5-3.6
			c1,0.9,2.3,1.4,3.7,1.6c0,0,0.9,1.5-0.2,2.1s-1.6,1.5-1.5,2.1c-0.4-0.1-0.7-0.1-1.1-0.2c-0.5,0-1,1.4-1,1.4s3.1,0.1,3.4-0.9
			c0.6-1.3,1.4-2.6,2.3-3.7c0.2-0.6,0.2-1.3-0.2-1.8c-0.3-0.4-3.1-2.8-3.1-2.8s2.6-6.1,1.9-9.6l0.3-1.8l1,1.7
			c0.1,0.7,0.3,1.3,0.5,1.9c0.4,0.4,0.7-1,0.7-1s0.3,1.8,1.4,0.5l0.6-0.5C202.2,26.7,202,23.6,201.2,23z M188.2,23.5
			c0.2-0.4,0.3-0.9,0.5-1.3l0.5,1l-0.2,1.6C189,24.8,188.1,23.8,188.2,23.5L188.2,23.5z M190,23.5c-0.4,0.2,0.1-1.3,0.4-2.1
			c0.2-0.3,0.1-0.6-0.2-0.7c-0.2-0.1-0.4-0.1-0.6,0c-0.2,0.2-0.5,0.4-0.7,0.5l0.2-1.2c0.7,0.1,1.3,0.1,2,0c0.5-0.1,0.9-0.1,1.3,0.2
			C191.7,21.3,190.9,22.4,190,23.5L190,23.5z"/>
		
			<rect x="171.8" y="55.4" transform="matrix(0.1561 -0.9877 0.9877 0.1561 72.5557 237.0785)" class="st20" width="6.4" height="41.4"/>
		
			<rect x="173.3" y="58.7" transform="matrix(0.1561 -0.9877 0.9877 0.1561 67.8561 239.9599)" class="st15" width="2.1" height="43.1"/>
		<polygon class="st21" points="194.6,73.8 157.1,67.9 155.1,69.7 196,76.2 		"/>
		
			<rect x="171.1" y="44.4" transform="matrix(0.1595 -0.9872 0.9872 0.1595 87.8706 230.0738)" class="st20" width="15.9" height="38.1"/>
		
			<rect x="173.1" y="53.2" transform="matrix(0.1561 -0.9877 0.9877 0.1561 87.6895 227.8028)" class="st15" width="8.1" height="18.9"/>
		
			<rect x="176.4" y="30.4" transform="matrix(0.1561 -0.9877 0.9877 0.1561 100.5846 219.8871)" class="st20" width="5.1" height="41.4"/>
		
			<rect x="177.6" y="32.9" transform="matrix(0.1561 -0.9877 0.9877 0.1561 96.8257 222.2034)" class="st15" width="1.7" height="43.1"/>
		<polygon class="st21" points="198.4,49.9 160.9,43.9 158.9,45.3 199.8,51.8 		"/>
		<polygon class="st22" points="291.7,194.7 233.6,123.8 206.1,227.1 		"/>
		<path class="st15" d="M174.6,78.4l-94.2,57.8c-0.6,0.4-1.5,0.2-1.9-0.5l0,0c-0.4-0.6-0.2-1.5,0.4-1.9l94.2-57.8
			c0.6-0.4,1.5-0.2,1.9,0.4l0,0C175.4,77.2,175.2,78.1,174.6,78.4z"/>
		<path class="st23" d="M222.1,212.5c2.1,3.6,0.8,8.6-2.5,11.7l0,0c-3.4,3.1-8.4,4-11.8,1.6l-1.7-1.2l-3.9,3.7
			c25.9,11.1,55.2,38.9,55.2,38.9l1.2-1.1l1.2-1.1c0,0-25.6-31.3-34.8-57.9l-3.9,3.7L222.1,212.5z M243.4,247.6
			c2.3,3.4,4.5,6.4,6.4,9.1c-2.5-2.1-5.4-4.5-8.6-7c-0.8-0.6-3.8-3-4.6-3.6l3.5-3.2C240.7,243.6,242.8,246.7,243.4,247.6z
			 M239,240.8l-4.2,3.9c-3.5-2.6-6.9-5-10.3-7.2l8-7.4C234.4,233.5,236.6,237.1,239,240.8L239,240.8z"/>
		<path class="st23" d="M265.2,273.2L265.2,273.2c0.2-0.2,0.2-0.5,0-0.6L260,267l-0.7,0.6l5.2,5.6
			C264.7,273.4,265,273.4,265.2,273.2C265.2,273.2,265.2,273.2,265.2,273.2z"/>
		
			<rect x="257.3" y="266.2" transform="matrix(0.7324 -0.6808 0.6808 0.7324 -112.231 247.7882)" class="st23" width="3.6" height="0.9"/>
		<path class="st15" d="M256.1,266.7l3.3-3c0.3-0.3,0.7-0.2,1,0l0.2,0.2c0.3,0.3,0.2,0.7,0,1l-3.3,3c-0.3,0.3-0.7,0.2-1,0l-0.2-0.2
			C255.8,267.4,255.8,266.9,256.1,266.7z"/>
		<path class="st15" d="M257.5,268.6l3.6-3.3c0.2-0.2,0.4-0.2,0.6,0c0,0,0,0,0,0l0,0c0.2,0.2,0.2,0.4,0,0.6c0,0,0,0,0,0l-3.6,3.3
			c-0.2,0.2-0.5,0.2-0.6,0l0,0C257.4,269,257.4,268.7,257.5,268.6z"/>
		
			<rect x="217.2" y="229.8" transform="matrix(0.7324 -0.6808 0.6808 0.7324 -97.2027 216.4705)" class="st24" width="19.3" height="4.3"/>
		
			<rect x="218.1" y="231.7" transform="matrix(0.7324 -0.6808 0.6808 0.7324 -97.621 217.3477)" class="st15" width="19.3" height="2.3"/>
		
			<rect x="230.8" y="242.5" transform="matrix(0.7324 -0.6808 0.6808 0.7324 -102.2411 226.9695)" class="st24" width="13.8" height="2.2"/>
		
			<rect x="231.2" y="243.5" transform="matrix(0.7324 -0.6808 0.6808 0.7324 -102.4546 227.4186)" class="st15" width="13.8" height="1.2"/>
		<path class="st25" d="M109,226.4l-2.7-4.4l-8.1,5l-4.2-6.8l8.1-5l-3.1-5l-23.9,14.8c-5.7,3.5-13.1,1.8-16.6-3.9c0,0,0,0,0,0l0,0
			c-3.5-5.7-1.8-13.1,3.9-16.6c0,0,0,0,0,0l23.9-14.8l-10-16.1l-39.2,24.2l32.7,52.8L109,226.4z M79.1,178l4.2,6.8l-8.1,5L71,183
			L79.1,178z M42.6,198.1l4.6-2.8l6.5,10.5l-4.6,2.8L42.6,198.1z M70.1,232.4l6.5,10.5l-4.6,2.8l-6.5-10.5L70.1,232.4z"/>
		<polygon class="st25" points="106.3,222.1 102.1,215.3 102.1,215.3 106.3,222.1 		"/>
		<path class="st25" d="M67.6,252l-32.6-52.7l-7.1,4.4l32.6,52.8L67.6,252z M32.1,205l3.4-2.1l0.7,1.1l-3.3,2.1L32.1,205z
			 M34.9,209.6l3.4-2.1l0.7,1.1l-3.4,2.1L34.9,209.6z M37.8,214.2l3.4-2.1l0.7,1.1l-3.4,2.1L37.8,214.2z M40.6,218.8l3.4-2.1
			l0.7,1.1l-3.4,2.1L40.6,218.8z M43.5,223.4l3.3-2.1l0.7,1.1l-3.4,2.1L43.5,223.4z M46.3,228l3.4-2.1l0.7,1.1l-3.4,2.1L46.3,228z
			 M49.1,232.6l3.4-2.1l0.7,1.1l-3.4,2.1L49.1,232.6z M52,237.2l3.4-2.1l0.7,1.1l-3.4,2.1L52,237.2z M54.8,241.8l3.4-2.1l0.7,1.1
			l-3.4,2.1L54.8,241.8z M57.7,246.4l3.4-2.1l0.7,1.1l-3.4,2.1L57.7,246.4z M60.5,251l3.4-2.1l0.7,1.1l-3.4,2.1L60.5,251z"/>
		
			<rect x="56.2" y="258.3" transform="matrix(0.8506 -0.5258 0.5258 0.8506 -127.5845 69.0868)" class="st25" width="3.1" height="1.5"/>
		
			<rect x="54.5" y="255.5" transform="matrix(0.8506 -0.5258 0.5258 0.8506 -126.3452 67.7342)" class="st25" width="3.1" height="1.5"/>
		
			<rect x="52.7" y="252.6" transform="matrix(0.8506 -0.5258 0.5258 0.8506 -125.1151 66.3767)" class="st25" width="3.1" height="1.5"/>
		
			<rect x="50.9" y="249.7" transform="matrix(0.8506 -0.5258 0.5258 0.8506 -123.8705 65.0226)" class="st25" width="3.1" height="1.5"/>
		
			<rect x="49.2" y="246.9" transform="matrix(0.8506 -0.5258 0.5258 0.8506 -122.6389 63.6703)" class="st25" width="3.1" height="1.5"/>
		
			<rect x="47.4" y="244" transform="matrix(0.8506 -0.5258 0.5258 0.8506 -121.3958 62.311)" class="st25" width="3.1" height="1.5"/>
		
			<rect x="45.7" y="241.2" transform="matrix(0.8506 -0.5258 0.5258 0.8506 -120.1641 60.9587)" class="st25" width="3.1" height="1.5"/>
		
			<rect x="43.9" y="238.3" transform="matrix(0.8506 -0.5258 0.5258 0.8506 -118.9285 59.6102)" class="st25" width="3.1" height="1.5"/>
		
			<rect x="42.1" y="235.5" transform="matrix(0.8506 -0.5258 0.5258 0.8506 -117.6839 58.2561)" class="st25" width="3.1" height="1.5"/>
		
			<rect x="40.4" y="232.6" transform="matrix(0.8506 -0.5258 0.5258 0.8506 -116.4538 56.8986)" class="st25" width="3.1" height="1.5"/>
		
			<rect x="38.6" y="229.8" transform="matrix(0.8506 -0.5258 0.5258 0.8506 -115.2092 55.5445)" class="st25" width="3.1" height="1.5"/>
		
			<rect x="36.8" y="226.9" transform="matrix(0.8506 -0.5258 0.5258 0.8506 -113.9776 54.1922)" class="st25" width="3.1" height="1.5"/>
		
			<rect x="36.9" y="223" transform="matrix(0.8486 -0.5291 0.5291 0.8486 -112.5558 54.2316)" class="st25" width="3.1" height="1.6"/>
		
			<rect x="35.1" y="220.1" transform="matrix(0.8486 -0.5291 0.5291 0.8486 -111.3211 52.8564)" class="st25" width="3.1" height="1.6"/>
		
			<rect x="31.5" y="218.3" transform="matrix(0.8506 -0.5258 0.5258 0.8506 -110.2635 50.128)" class="st25" width="3.1" height="1.5"/>
		
			<rect x="29.8" y="215.5" transform="matrix(0.8506 -0.5258 0.5258 0.8506 -109.0266 48.7743)" class="st25" width="3.1" height="1.5"/>
		
			<rect x="29.8" y="211.6" transform="matrix(0.8486 -0.5291 0.5291 0.8486 -107.6076 48.7489)" class="st25" width="3.1" height="1.6"/>
		
			<rect x="26.2" y="209.8" transform="matrix(0.8506 -0.5258 0.5258 0.8506 -106.5531 46.0679)" class="st25" width="3.1" height="1.5"/>
		
			<rect x="24.5" y="206.9" transform="matrix(0.8506 -0.5258 0.5258 0.8506 -105.3126 44.7101)" class="st25" width="3.1" height="1.5"/>
		
			<rect x="24.5" y="203" transform="matrix(0.8486 -0.5291 0.5291 0.8486 -103.8994 44.6401)" class="st25" width="3.1" height="1.6"/>
		
			<rect x="41.3" y="198.4" transform="matrix(0.8506 -0.5258 0.5258 0.8506 -115.1407 56.8517)" class="st26" width="2.4" height="65.3"/>
		
			<rect x="43.3" y="197.1" transform="matrix(0.8506 -0.5258 0.5258 0.8506 -114.1684 57.738)" class="st27" width="2.4" height="65.3"/>
		
			<rect x="50.9" y="191.2" transform="matrix(0.8506 -0.5258 0.5258 0.8506 -110.5574 61.0416)" class="st26" width="2.4" height="67.9"/>
		
			<rect x="53" y="189.9" transform="matrix(0.8506 -0.5258 0.5258 0.8506 -109.5887 61.932)" class="st27" width="2.4" height="67.9"/>
		<path class="st27" d="M47,191.8l10.9,17.7c0.2-0.5,0.5-0.9,0.8-1.3l-10.5-17L47,191.8z"/>
		<path class="st27" d="M80.8,243.9l-10.5-17c-0.5,0.1-1,0.1-1.5,0.1l10.9,17.7L80.8,243.9z"/>
		<path class="st26" d="M48.1,191.1l10.5,17c0.3-0.4,0.6-0.8,0.9-1.1l-10.3-16.6L48.1,191.1z"/>
		<path class="st26" d="M81.9,243.2l-10.3-16.6c-0.5,0.1-0.9,0.2-1.4,0.3l10.6,17L81.9,243.2z"/>
		
			<rect x="91.2" y="216.4" transform="matrix(0.8506 -0.5258 0.5258 0.8506 -105.05 82.0269)" class="st27" width="1.3" height="18.9"/>
		
			<rect x="68.5" y="179.8" transform="matrix(0.8506 -0.5258 0.5258 0.8506 -89.1601 64.6371)" class="st27" width="1.3" height="18.9"/>
		
			<rect x="69.7" y="179.3" transform="matrix(0.8506 -0.5258 0.5258 0.8506 -88.7726 64.9931)" class="st26" width="0.7" height="18.9"/>
		
			<rect x="92.3" y="215.9" transform="matrix(0.8506 -0.5258 0.5258 0.8506 -104.6626 82.383)" class="st26" width="0.7" height="18.9"/>
	</g>
	<g id="front">
		<circle class="st28" cx="159.3" cy="159.3" r="84.9"/>
		<path class="st29" d="M194.3,231.3c39.7-19.3,56.3-67.2,37-106.9s-67.2-56.3-106.9-37s-56.3,67.2-37,106.9c0,0,0,0,0,0
			C106.7,234,154.5,250.5,194.3,231.3z M97.5,189.3c-16.6-34.1-2.4-75.3,31.8-91.8c34.1-16.6,75.3-2.4,91.8,31.8
			c16.6,34.1,2.4,75.3-31.8,91.8c0,0,0,0,0,0C155.2,237.7,114.1,223.5,97.5,189.3z"/>
		<path class="st30" d="M79.2,174.5c0.2,1-0.4,1.9-1.4,2.1l-14.3,2.9c-1,0.3-2-0.3-2.2-1.3c-0.3-1,0.3-2,1.3-2.2c0.1,0,0.2,0,0.2,0
			l14.3-2.9C78,172.9,79,173.5,79.2,174.5z"/>
		<path class="st31" d="M57.9,168.7c5.4-1,10.6,2.5,11.6,7.9s-2.5,10.6-7.9,11.6c-5.3,1-10.5-2.5-11.6-7.8
			C49,175,52.5,169.8,57.9,168.7z"/>
		<path class="st32" d="M50,180.3c0,0,0,0.1,0,0.1c1.3,5.4,6.7,8.8,12.1,7.5c5.2-1.2,8.5-6.3,7.6-11.5v-0.1L50,180.3z"/>
		<path class="st30" d="M78.3,158.8c0,1.4-1.2,2.5-2.5,2.5l-20.4-0.1c-1.4,0-2.5-1.1-2.5-2.5c0-1.4,1.1-2.5,2.5-2.5c0,0,0,0,0,0
			l20.4,0.2C77.2,156.3,78.3,157.4,78.3,158.8z"/>
		<path class="st31" d="M50.9,144.8c7.6,0.2,13.7,6.5,13.6,14.1s-6.5,13.7-14.1,13.6c-7.6-0.2-13.6-6.4-13.6-13.9
			C36.9,150.9,43.2,144.7,50.9,144.8C50.9,144.8,50.9,144.8,50.9,144.8z"/>
		<path class="st32" d="M36.8,158.4v0.1c0,7.8,6.2,14.1,14,14.1c7.8,0,14.1-6.2,14.1-14v-0.1L36.8,158.4z"/>
		<path class="st30" d="M98.7,104.6c-1.1,1.2-2.9,1.4-4.2,0.4L76.3,89.9c-1.3-1-1.4-2.9-0.4-4.1c1-1.3,2.9-1.4,4.1-0.4l0,0
			l18.3,15.1C99.5,101.4,99.7,103.3,98.7,104.6z"/>
		<path class="st31" d="M84.3,71.8c6.8,5.8,7.6,15.9,1.8,22.7c-5.8,6.8-15.9,7.6-22.7,1.8c-6.7-5.7-7.6-15.7-2-22.5
			C67.3,67,77.5,66.1,84.3,71.8z"/>
		<path class="st32" d="M61.6,73.7c0,0-0.1,0.1-0.1,0.1c-5.7,7-4.6,17.3,2.5,22.9c6.9,5.6,17,4.6,22.7-2.2l0.1-0.1L61.6,73.7z"/>
		<path class="st30" d="M148.6,78.4c-1.2,0.2-2.4-0.6-2.6-1.9l-3.2-18c-0.2-1.2,0.6-2.4,1.8-2.7c1.2-0.2,2.4,0.6,2.7,1.8
			c0,0,0,0.1,0,0.1l3.2,18C150.6,76.9,149.8,78.2,148.6,78.4C148.6,78.4,148.6,78.4,148.6,78.4z"/>
		<path class="st31" d="M156.4,52c1.1,6.8-3.5,13.1-10.2,14.2c-6.8,1.1-13.1-3.5-14.2-10.2c-1.1-6.7,3.4-13,10.1-14.2
			C148.8,40.7,155.3,45.2,156.4,52z"/>
		<path class="st32" d="M142.2,41.8H142c-6.8,1.2-11.4,7.7-10.2,14.6c1.2,6.8,7.7,11.4,14.6,10.2h0.1L142.2,41.8z"/>
		<path class="st30" d="M197.8,88.6c-1-0.5-1.3-1.6-0.9-2.6l6.9-13.8c0.4-1,1.5-1.4,2.5-1s1.4,1.5,1,2.5c0,0.1-0.1,0.1-0.1,0.2
			l-6.9,13.8C199.9,88.7,198.8,89.1,197.8,88.6z"/>
		<path class="st31" d="M216.4,74.6c-2.7,5.1-9,7.2-14.1,4.5s-7.2-9-4.5-14.1c2.6-5.1,8.9-7.1,14-4.6
			C217,63.1,219.1,69.4,216.4,74.6C216.4,74.6,216.4,74.6,216.4,74.6z"/>
		<path class="st32" d="M211.9,60.5L211.9,60.5c-5.5-2.4-11.7,0.1-14.1,5.5c-2.1,5-0.2,10.7,4.5,13.4l0.1,0L211.9,60.5z"/>
		<path class="st30" d="M224,109.6c-0.8-1-0.7-2.4,0.3-3.2l14-11.7c1-0.8,2.4-0.7,3.2,0.3c0.8,1,0.7,2.4-0.3,3.2l-14,11.7
			C226.3,110.7,224.9,110.6,224,109.6C224,109.6,224,109.6,224,109.6z"/>
		<path class="st31" d="M250.8,103.3c-5.3,4.3-13.1,3.5-17.4-1.8c-4.3-5.3-3.5-13.1,1.8-17.4c5.2-4.3,13-3.6,17.3,1.6
			C256.9,91,256.1,98.9,250.8,103.3z"/>
		<path class="st32" d="M252.6,85.8c0,0-0.1-0.1-0.1-0.1c-4.6-5.2-12.6-5.7-17.7-1.1c-5,4.4-5.7,12-1.5,17.2l0.1,0.1L252.6,85.8z"/>
		<path class="st30" d="M198,231.2c1.1-0.6,2.5-0.3,3.1,0.8l9.4,15.7c0.6,1.1,0.3,2.5-0.8,3.1s-2.5,0.3-3.1-0.8l0,0l-9.4-15.7
			C196.6,233.2,196.9,231.8,198,231.2z"/>
		<path class="st31" d="M199.9,258.7c-3.4-5.9-1.4-13.5,4.5-16.9c5.9-3.4,13.5-1.4,16.9,4.5c3.4,5.9,1.4,13.4-4.4,16.8
			C211.1,266.6,203.4,264.6,199.9,258.7z"/>
		<path class="st32" d="M216.9,263.2l0.1-0.1c5.9-3.7,7.6-11.5,3.9-17.3c-3.6-5.7-11-7.5-16.8-4.2l-0.1,0.1L216.9,263.2z"/>
		<path class="st33" d="M247.5,174.8c0.2-0.1,3.9-1.4,4.4-1.7s4-0.1,5.2-0.9c1.2-0.8,3.9-3.6,4-4.7c0.1-1.1-2.1-2.8-1.5-4.6
			s2.2-1.6,2-3.6c-0.2-1.9-0.5-3-2.6-3.8c-0.6-0.2-1.1-0.7-1.4-1.2c-0.4-0.6-0.3-1.5,0.3-1.9c0.1-0.1,0.2-0.1,0.3-0.1
			c1.4-0.8,2.9-1.3,4.4-1.7c0.1,0,0.5-0.3,0.7-0.3s0.9-0.1,0.4-1c-0.5-0.9-0.1-3.7-0.4-3.9c-0.4-0.3-0.8-0.6-1.2-0.9
			c-0.3-0.1-0.3,0.6-0.4,0.4s-0.3-0.3-0.3-0.3c0,0.3,0,0.6,0.1,0.9c0,0-1,2.3-1.1,2.8c0,0-0.9,0-1,0s-2.3,0.7-2.5,0.8l-0.9,0.6
			c0,0-0.7,0.8-0.9,1.1c-0.2,0.2-0.4,0.5-0.5,0.7c0,0-0.4,1.4-0.6,2.1c0,0.7,0.1,1.4,0.3,2.1c0,0,0.3,0.6,0,0.6s-4.1-0.9-5-1
			s-5.2,0.4-5.5,0.2s-1-1-1.3-1s-0.1,2.5-0.1,2.5l6.9-0.1c0.6,0.3,1.3,0.7,1.9,1.1c-0.7,0.1-1.3,0.2-2,0.3c-0.1,0.1-5.4,0.8-5.5,0.4
			c-0.2-0.4-0.5-0.8-1-0.9c-0.1,0-0.3,0-0.3,0.2c0,0,0,0.1,0,0.1l-0.1,2.3c0,0,6.5-0.4,7-0.4c0.4,0,2.1,0.4,3.1,0.6
			c-0.6,2.2-0.6,4.6,0,6.8l-0.8,0.2c-0.8,0.3-1.6,0.7-2.3,1.1c-0.8,0.4-1.6,0.6-2.5,0.7c-0.1,0-3.6-1.6-3.8-1.7
			c-0.2-0.3-0.5-0.6-0.8-0.9c-0.1-0.1-0.4-0.1-0.5,0.1c0,0.1-0.1,0.1-0.1,0.2l-0.1,1.5l5.1,2.6c0,0,2-0.1,3.5-0.1
			c-1.1,0.7-2.2,1.4-3.3,1.9c-1.3,0.2-2.5,0.3-3.8,0.3c-0.1,0-0.5-0.4-1-0.6c-0.2-0.1-0.5-0.1-0.6,0.2c0,0.1-0.1,0.1-0.1,0.2
			l-0.1,2.1C240.9,175.1,247.3,174.9,247.5,174.8z"/>
		<circle class="st34" cx="159.3" cy="159.3" r="76.3"/>
		<path class="st35" d="M282.9,236.2c0.2-0.3,8.9-12.6-4.4-18.2c0,0-3.6-1-10.1,1c0,0-6.8,1.9-8.1,1.6l-0.5,0.9l0,0l-0.5,0.9
			c0.8,1.1,2,8,2,8c0.9,6.7,3.4,9.5,3.4,9.5C275.3,249.7,282.7,236.6,282.9,236.2z"/>
		<path class="st36" d="M285.6,225.4c-0.6-2.8-2.6-5.5-7.2-7.4c0,0-3.4-0.9-9.5,0.8c6,1,12.6,3.5,14.8,4.9
			C284.5,224.2,285.2,224.8,285.6,225.4z"/>
		<path class="st36" d="M274.3,243.3c-0.8-0.2-1.6-0.5-2.3-0.9c-2.2-1.4-7.2-6.4-10.7-11.4c1,6.2,3.3,8.9,3.3,8.9
			C268.2,243.3,271.5,243.9,274.3,243.3z"/>
		<path class="st36" d="M276.3,235.6c-3.2-2-13.5-9.6-17.1-13.3v0.1c0.6,1.3,1,2.8,1.3,4.2c3.9,4.8,8.4,9.1,13.4,12.8
			c1.5,1,3.3,1.5,5.1,1.5c1-0.9,1.9-1.8,2.7-2.9C279.8,237.5,278,236.7,276.3,235.6z"/>
		<path class="st36" d="M260.3,220.6L260.3,220.6c4.8,1.7,16,7.9,19.3,9.9c1.7,1,3.2,2.3,4.5,3.8c0.6-1.2,1.1-2.4,1.4-3.7
			c-0.8-1.6-2-3-3.5-4c-5.4-3-11.3-5.2-17.3-6.7C263.2,220.4,261.8,220.6,260.3,220.6z"/>
		<path class="st37" d="M260.3,220.6l-1.1,1.7l0,0l-0.8-0.5c-0.5-0.3-0.6-0.9-0.3-1.4l0,0c0.3-0.5,0.9-0.6,1.4-0.3L260.3,220.6
			L260.3,220.6z"/>
		<path class="st30" d="M114,227.2c1.1,0.6,1.4,2,0.8,3.1l-9.4,15.6c-0.6,1.1-2,1.5-3.1,0.9s-1.5-2-0.9-3.1c0-0.1,0.1-0.1,0.1-0.2
			l9.4-15.6C111.6,226.9,112.9,226.6,114,227.2z"/>
		<path class="st31" d="M90.7,241.8c3.6-5.8,11.3-7.6,17.1-4s7.6,11.3,4,17.1c-3.6,5.8-11.1,7.6-16.9,4.1
			C88.9,255.4,87.1,247.7,90.7,241.8C90.7,241.8,90.7,241.8,90.7,241.8z"/>
		<path class="st32" d="M94.6,258.9l0.1,0.1c6,3.5,13.7,1.4,17.2-4.5c3.4-5.8,1.6-13.3-4.2-16.9l-0.1-0.1L94.6,258.9z"/>
	</g>
</g>
</svg>
