<svg id="moon" xmlns="http://www.w3.org/2000/svg" viewBox="0 0 192.38 197.48"><defs><style>.cls-1{fill:#fff;}.cls-2{fill:#846858;}.cls-3{fill:#a6beca;}</style></defs><title>moon</title><path class="cls-1" d="M382.08,446.27c-27.82,46.46-89.32,64.73-132.85,33.31s-60.46-87.53-33.31-132.85c27.82-46.46,89.32-64.73,132.85-33.31S409.23,401,382.08,446.27Z" transform="translate(-202.81 -297.76)"/><path class="cls-2" d="M260.78,409.37a11.48,11.48,0,0,1-11.47-11.47v-1.09a1.74,1.74,0,1,1,3.48,0v1.09a8,8,0,0,0,16,0v-1.09a1.74,1.74,0,1,1,3.48,0v1.09A11.48,11.48,0,0,1,260.78,409.37Z" transform="translate(-202.81 -297.76)"/><path class="cls-2" d="M300.39,426.79c-4.05,0-7-3.62-7.35-4a2.09,2.09,0,0,1,3.28-2.59c.54.67,2.34,2.44,4.07,2.44s3.53-1.77,4.08-2.45a2.09,2.09,0,0,1,3.28,2.6C307.42,423.17,304.44,426.79,300.39,426.79Z" transform="translate(-202.81 -297.76)"/><path class="cls-2" d="M336.1,409.37a11.48,11.48,0,0,1-11.47-11.47v-1.09a1.74,1.74,0,0,1,3.48,0v1.09a8,8,0,1,0,16,0v-1.09a1.74,1.74,0,0,1,3.48,0v1.09A11.48,11.48,0,0,1,336.1,409.37Z" transform="translate(-202.81 -297.76)"/><ellipse class="cls-3" cx="152.59" cy="121.16" rx="13.27" ry="7.34"/><ellipse class="cls-3" cx="38.09" cy="121.16" rx="13.27" ry="7.34"/></svg>