<svg xmlns="http://www.w3.org/2000/svg" viewBox="0 0 383.53 197.48"><defs><style>.cls-1{fill:#fff;}.cls-2{fill:#5d4037;}.cls-3{fill:#846858;}.cls-4{fill:#a6beca;}</style></defs><g id="moon"><path class="cls-1" d="M304.69,168l-2.27.54.28-.66a151.34,151.34,0,0,0-16.37-8.41c-7.88-3.31-12.18-3.8-12.18-3.8l-4.75,6.72s10,3,16.84,6.85c3.45,1.92,6.71,3.66,9.11,4.91h0s-.68,3.86,3.08,7.75,8.18,9.18,13.48,6.68a14.32,14.32,0,0,0,7-8.09V170.19Z" transform="translate(-8.1 0)"/><path class="cls-2" d="M311.16,164.12l-17,25s.36,3.17,2.92,4.26a8.65,8.65,0,0,0,5.6,0l17.06-26.33s.7-.49-2.2-1.72A18.74,18.74,0,0,0,311.16,164.12Z" transform="translate(-8.1 0)"/><path class="cls-2" d="M313.5,161l10.4-16.41s3.5-4.72,5.72-3.61S333,147,333,147l-12.26,18.1s-.25-.63-3.31-3S313.5,161,313.5,161Z" transform="translate(-8.1 0)"/><path class="cls-1" d="M324.15,167.43c-.83-3.34-5-7-12.51-7.5s-13.21,7.5-13.21,7.5v4.17s9.32-1.95,11.27-1.41a7.68,7.68,0,0,1,5.2,4.31s-4.37-1-7.94,6,1.9,8.73,1.9,8.73l7.32-10.59c1.36,1.73,4,2.21,6.86,1.61C326.93,179.38,325,170.76,324.15,167.43Z" transform="translate(-8.1 0)"/><path class="cls-1" d="M95,168l2.27.54-.27-.66a151.34,151.34,0,0,1,16.37-8.41c7.87-3.31,12.18-3.8,12.18-3.8l4.75,6.72s-10,3-16.85,6.85c-3.44,1.92-6.71,3.66-9.1,4.91h0s.68,3.86-3.08,7.75-8.18,9.18-13.48,6.68a14.31,14.31,0,0,1-7-8.09V170.19Z" transform="translate(-8.1 0)"/><path class="cls-2" d="M88.57,164.12l17,25s-.36,3.17-2.92,4.26a8.61,8.61,0,0,1-5.59,0L80,167.07s-.71-.49,2.2-1.72A18.7,18.7,0,0,1,88.57,164.12Z" transform="translate(-8.1 0)"/><path class="cls-2" d="M86.22,161l-10.4-16.41s-3.49-4.72-5.72-3.61S66.77,147,66.77,147L79,165.13s.25-.63,3.3-3S86.22,161,86.22,161Z" transform="translate(-8.1 0)"/><path class="cls-1" d="M90,170.19c1.94-.54,11.27,1.41,11.27,1.41v-4.17s-5.71-8.05-13.22-7.5-11.67,4.16-12.51,7.5-2.78,11.95,1.11,12.79a8.49,8.49,0,0,0,5.18-.32l9,9.3s5.48-1.81,1.91-8.73-7.94-6-7.94-6h0A7.66,7.66,0,0,1,90,170.19Z" transform="translate(-8.1 0)"/><path class="cls-1" d="M283.08,148.51c-27.82,46.46-89.32,64.73-132.85,33.31S89.77,94.29,116.92,49c27.82-46.46,89.32-64.73,132.85-33.31S310.23,103.24,283.08,148.51Z" transform="translate(-8.1 0)"/><path class="cls-3" d="M161.78,111.61a11.49,11.49,0,0,1-11.47-11.47V99.05a1.74,1.74,0,0,1,3.48,0h0v1.09a8,8,0,0,0,16,0V99.05a1.74,1.74,0,0,1,3.48,0v1.09a11.48,11.48,0,0,1-11.49,11.47Z" transform="translate(-8.1 0)"/><path class="cls-3" d="M201.39,129c-4,0-7-3.62-7.35-4a2.09,2.09,0,0,1,3.28-2.59c.54.67,2.34,2.44,4.07,2.44s3.53-1.77,4.08-2.45a2.09,2.09,0,1,1,3.28,2.6C208.42,125.41,205.44,129,201.39,129Z" transform="translate(-8.1 0)"/><path class="cls-3" d="M237.1,111.61a11.49,11.49,0,0,1-11.47-11.47V99.05a1.74,1.74,0,0,1,3.48,0v1.09a8,8,0,0,0,16,0V99.05a1.74,1.74,0,0,1,3.48,0v1.09a11.48,11.48,0,0,1-11.49,11.47Z" transform="translate(-8.1 0)"/><ellipse class="cls-4" cx="248.3" cy="121.16" rx="13.27" ry="7.34"/><ellipse class="cls-4" cx="133.8" cy="121.16" rx="13.27" ry="7.34"/></g><g id="left-cycle"><circle class="cls-2" cx="42.34" cy="115.39" r="42.34"/></g><g id="right-cycle"><circle class="cls-2" cx="341.2" cy="115.39" r="42.34"/></g><g id="down-arrow"><polygon class="cls-1" points="355.99 118.07 355.99 93.42 326.41 93.42 326.41 118.07 315.57 118.07 341.2 145.99 366.83 118.07 355.99 118.07"/></g><g id="up-arrow"><polygon class="cls-1" points="26.83 115.03 26.83 139.67 56.4 139.67 56.4 115.03 67.25 115.03 41.61 87.11 15.98 115.03 26.83 115.03"/></g></svg>