<svg id="sun" xmlns="http://www.w3.org/2000/svg" viewBox="0 0 196.86 197.48"><defs><style>.cls-1{fill:#fde06f;}.cls-2{fill:#846858;}.cls-3{fill:#f6bb4a;}</style></defs><title>sun</title><path class="cls-1" d="M404.43,396.5c0,55-44.07,103.08-98.43,98.43s-98.43-44.74-98.43-98.43c0-55,44.07-103.08,98.43-98.43S404.43,342.81,404.43,396.5Z" transform="translate(-207.57 -297.76)"/><ellipse class="cls-2" cx="134.75" cy="109.03" rx="3.15" ry="6.35"/><ellipse class="cls-2" cx="57.9" cy="109.03" rx="3.15" ry="6.35"/><path class="cls-2" d="M303.89,457.69a10.33,10.33,0,0,1-10.31-10.32v-2.16a1.35,1.35,0,1,1,2.7,0v2.16a7.62,7.62,0,1,0,15.23,0v-2.16a1.35,1.35,0,1,1,2.69,0v2.16A10.32,10.32,0,0,1,303.89,457.69Z" transform="translate(-207.57 -297.76)"/><ellipse class="cls-3" cx="151.45" cy="128.53" rx="13.56" ry="13.14"/><ellipse class="cls-3" cx="41.2" cy="128.53" rx="13.56" ry="13.14"/></svg>