<svg xmlns="http://www.w3.org/2000/svg" viewBox="0 0 383.53 197.48"><defs><style>.cls-1{fill:#fde06f;}.cls-2{fill:#846858;}.cls-3{fill:#f6bb4a;}.cls-4{fill:#5d4037;}.cls-5{fill:#fff;}</style></defs><g id="sun"><path class="cls-1" d="M298.43,98.74c0,55-44.07,103.08-98.43,98.43s-98.43-44.74-98.43-98.43c0-55,44.07-103.08,98.43-98.43S298.43,45.05,298.43,98.74Z" transform="translate(-8.1 0)"/><ellipse class="cls-2" cx="228.22" cy="109.03" rx="3.15" ry="6.35"/><ellipse class="cls-2" cx="151.37" cy="109.03" rx="3.15" ry="6.35"/><path class="cls-2" d="M197.89,159.93a10.34,10.34,0,0,1-10.31-10.32v-2.16a1.35,1.35,0,0,1,2.7,0v2.16a7.62,7.62,0,1,0,15.23.55,5,5,0,0,0,0-.55v-2.16a1.35,1.35,0,1,1,2.69-.23.89.89,0,0,1,0,.23v2.16A10.32,10.32,0,0,1,197.89,159.93Z" transform="translate(-8.1 0)"/><ellipse class="cls-3" cx="244.92" cy="128.53" rx="13.56" ry="13.14"/><ellipse class="cls-3" cx="134.67" cy="128.53" rx="13.56" ry="13.14"/></g><g id="Layer_2" data-name="Layer 2"><path class="cls-1" d="M304.69,168l-2.27.54.28-.66a151.34,151.34,0,0,0-16.37-8.41c-7.88-3.31-12.18-3.8-12.18-3.8l-4.75,6.72s10,3,16.84,6.85c3.45,1.92,6.71,3.66,9.11,4.91h0s-.68,3.86,3.08,7.75,8.18,9.18,13.48,6.68a14.32,14.32,0,0,0,7-8.09V170.19Z" transform="translate(-8.1 0)"/><path class="cls-4" d="M311.16,164.12l-17,25s.36,3.17,2.92,4.26a8.65,8.65,0,0,0,5.6,0l17.06-26.33s.7-.49-2.2-1.72A18.74,18.74,0,0,0,311.16,164.12Z" transform="translate(-8.1 0)"/><path class="cls-4" d="M313.5,161l10.4-16.41s3.5-4.72,5.72-3.61S333,147,333,147l-12.26,18.1s-.25-.63-3.31-3S313.5,161,313.5,161Z" transform="translate(-8.1 0)"/><path class="cls-1" d="M324.15,167.43c-.83-3.34-5-7-12.51-7.5s-13.21,7.5-13.21,7.5v4.17s9.32-1.95,11.27-1.41a7.68,7.68,0,0,1,5.2,4.31s-4.37-1-7.94,6,1.9,8.73,1.9,8.73l7.32-10.59c1.36,1.73,4,2.21,6.86,1.61C326.93,179.38,325,170.76,324.15,167.43Z" transform="translate(-8.1 0)"/><circle class="cls-4" cx="341.2" cy="115.39" r="42.34"/><path class="cls-1" d="M95,168l2.27.54-.27-.66a151.34,151.34,0,0,1,16.37-8.41c7.87-3.31,12.18-3.8,12.18-3.8l4.75,6.72s-10,3-16.85,6.85c-3.44,1.92-6.71,3.66-9.1,4.91h0s.68,3.86-3.08,7.75-8.18,9.18-13.48,6.68a14.31,14.31,0,0,1-7-8.09V170.19Z" transform="translate(-8.1 0)"/><path class="cls-4" d="M88.57,164.12l17,25s-.36,3.17-2.92,4.26a8.61,8.61,0,0,1-5.59,0L80,167.07s-.71-.49,2.2-1.72A18.7,18.7,0,0,1,88.57,164.12Z" transform="translate(-8.1 0)"/><path class="cls-4" d="M86.22,161l-10.4-16.41s-3.49-4.72-5.72-3.61S66.77,147,66.77,147L79,165.13s.25-.63,3.3-3S86.22,161,86.22,161Z" transform="translate(-8.1 0)"/><path class="cls-1" d="M90,170.19c1.94-.54,11.27,1.41,11.27,1.41v-4.17s-5.71-8.05-13.22-7.5-11.67,4.16-12.51,7.5-2.78,11.95,1.11,12.79a8.49,8.49,0,0,0,5.18-.32l9,9.3s5.48-1.81,1.91-8.73-7.94-6-7.94-6h0A7.66,7.66,0,0,1,90,170.19Z" transform="translate(-8.1 0)"/><circle class="cls-4" cx="42.34" cy="115.39" r="42.34"/><polygon class="cls-5" points="355.99 118.07 355.99 93.42 326.41 93.42 326.41 118.07 315.57 118.07 341.2 145.99 366.83 118.07 355.99 118.07"/><polygon class="cls-5" points="26.83 115.03 26.83 139.67 56.4 139.67 56.4 115.03 67.25 115.03 41.61 87.11 15.98 115.03 26.83 115.03"/></g></svg>